<?xml version="1.0" encoding="UTF-8"?>
<!DOCTYPE svg PUBLIC "-//W3C//DTD SVG 1.1//EN" "http://www.w3.org/Graphics/SVG/1.1/DTD/svg11.dtd">
<svg xmlns="http://www.w3.org/2000/svg" version="1.1" width="875px" height="419px" style="shape-rendering:geometricPrecision; text-rendering:geometricPrecision; image-rendering:optimizeQuality; fill-rule:evenodd; clip-rule:evenodd" xmlns:xlink="http://www.w3.org/1999/xlink">
<g><path style="opacity:0.97" fill="#be1629" d="M 198.5,2.5 C 229.745,2.57039 242.579,17.9037 237,48.5C 228.431,65.8677 214.598,72.701 195.5,69C 177.545,61.9326 169.712,48.766 172,29.5C 175.682,15.3189 184.515,6.31887 198.5,2.5 Z"/></g>
<g><path style="opacity:0.972" fill="#17365b" d="M 180.5,105.5 C 178.585,105.216 176.919,105.549 175.5,106.5C 148.297,111.869 131.797,128.202 126,155.5C 122.83,182.653 132.663,203.487 155.5,218C 157.025,219.009 158.692,219.509 160.5,219.5C 159.551,226.526 158.385,233.526 157,240.5C 156.692,241.308 156.192,241.975 155.5,242.5C 122.313,227.629 104.979,201.963 103.5,165.5C 104.746,129.433 121.746,103.933 154.5,89C 164.128,85.1176 174.128,83.2842 184.5,83.5C 183.166,90.8401 181.832,98.1735 180.5,105.5 Z"/></g>
<g><path style="opacity:0.923" fill="#17365b" d="M 187.5,221.5 C 187.5,222.833 187.5,224.167 187.5,225.5C 218.006,223.166 237.173,207.166 245,177.5C 248.657,154.804 242.157,135.637 225.5,120C 219.756,115.461 213.422,111.961 206.5,109.5C 208.26,102.277 209.593,94.944 210.5,87.5C 230.66,93.3464 246.16,105.346 257,123.5C 266.672,146.511 277.672,168.844 290,190.5C 305.029,213.188 325.196,229.688 350.5,240C 393.946,256.52 438.946,265.186 485.5,266C 547.43,268.185 608.763,263.185 669.5,251C 701.848,243.662 733.181,233.328 763.5,220C 764.635,219.251 765.635,219.417 766.5,220.5C 722.938,244.076 676.604,259.576 627.5,267C 564.258,276.181 500.925,276.848 437.5,269C 398.897,264.686 362.564,253.353 328.5,235C 309.236,223.07 294.069,207.236 283,187.5C 277.728,177.289 272.728,166.956 268,156.5C 270.252,186.818 259.752,211.651 236.5,231C 221.506,241.998 204.673,247.832 186,248.5C 184.379,248.275 183.212,247.442 182.5,246C 183.915,237.651 185.581,229.484 187.5,221.5 Z"/></g>
<g><path style="opacity:1" fill="#ad874b" d="M 175.5,106.5 C 176.919,105.549 178.585,105.216 180.5,105.5C 180.768,107.099 180.434,108.432 179.5,109.5C 179.5,108.5 179.5,107.5 179.5,106.5C 178.167,106.5 176.833,106.5 175.5,106.5 Z"/></g>
<g><path style="opacity:1" fill="#f1b71b" d="M 175.5,106.5 C 176.833,106.5 178.167,106.5 179.5,106.5C 179.5,107.5 179.5,108.5 179.5,109.5C 178.927,115.606 177.927,121.606 176.5,127.5C 168.866,131.1 162.033,136.1 156,142.5C 146.355,157.219 146.022,172.219 155,187.5C 157.766,190.777 160.933,193.443 164.5,195.5C 163.597,203.582 162.264,211.582 160.5,219.5C 158.692,219.509 157.025,219.009 155.5,218C 132.663,203.487 122.83,182.653 126,155.5C 131.797,128.202 148.297,111.869 175.5,106.5 Z"/></g>
<g><path style="opacity:0.971" fill="#16365b" d="M 332.5,109.5 C 340.5,109.5 348.5,109.5 356.5,109.5C 356.5,137.833 356.5,166.167 356.5,194.5C 373.833,194.5 391.167,194.5 408.5,194.5C 408.5,201.833 408.5,209.167 408.5,216.5C 383.167,216.5 357.833,216.5 332.5,216.5C 332.5,180.833 332.5,145.167 332.5,109.5 Z"/></g>
<g><path style="opacity:0.972" fill="#16365b" d="M 422.5,109.5 C 430.5,109.5 438.5,109.5 446.5,109.5C 446.5,144.833 446.5,180.167 446.5,215.5C 438.5,215.5 430.5,215.5 422.5,215.5C 422.5,180.167 422.5,144.833 422.5,109.5 Z"/></g>
<g><path style="opacity:0.961" fill="#16365b" d="M 463.5,109.5 C 479.503,109.333 495.503,109.5 511.5,110C 534.009,112.175 546.009,124.508 547.5,147C 546.97,166.866 536.97,178.866 517.5,183C 507.545,184.295 497.545,184.795 487.5,184.5C 487.5,194.833 487.5,205.167 487.5,215.5C 479.5,215.5 471.5,215.5 463.5,215.5C 463.5,180.167 463.5,144.833 463.5,109.5 Z M 487.5,131.5 C 495.903,131.13 504.236,131.63 512.5,133C 522.724,138.252 525.224,146.085 520,156.5C 518.269,158.617 516.102,160.117 513.5,161C 504.916,162.41 496.25,162.91 487.5,162.5C 487.5,152.167 487.5,141.833 487.5,131.5 Z"/></g>
<g><path style="opacity:0.964" fill="#be1629" d="M 561.5,109.5 C 577.503,109.333 593.503,109.5 609.5,110C 637.824,114.137 649.324,130.304 644,158.5C 639.467,172.361 629.967,180.528 615.5,183C 605.545,184.295 595.545,184.795 585.5,184.5C 585.5,194.833 585.5,205.167 585.5,215.5C 577.5,215.5 569.5,215.5 561.5,215.5C 561.5,180.167 561.5,144.833 561.5,109.5 Z M 585.5,131.5 C 594.994,130.895 604.328,131.729 613.5,134C 620.912,140.211 622.412,147.711 618,156.5C 615.592,158.956 612.759,160.789 609.5,162C 601.507,162.5 593.507,162.666 585.5,162.5C 585.5,152.167 585.5,141.833 585.5,131.5 Z"/></g>
<g><path style="opacity:0.957" fill="#be1629" d="M 683.5,109.5 C 699.18,107.314 713.846,110.147 727.5,118C 729.812,119.314 731.812,120.981 733.5,123C 729.943,129.287 725.776,135.12 721,140.5C 714.265,136.383 707.099,133.217 699.5,131C 692.052,129.046 685.885,130.879 681,136.5C 679.639,141.274 681.139,144.774 685.5,147C 693.97,150.284 702.636,152.951 711.5,155C 733.91,161.654 741.743,176.154 735,198.5C 730.838,207.993 723.671,213.826 713.5,216C 695.957,219.747 679.291,217.413 663.5,209C 659.569,206.868 656.236,204.035 653.5,200.5C 657.849,194.655 662.682,189.321 668,184.5C 672.9,188.037 678.066,191.203 683.5,194C 692.233,197.209 700.9,197.209 709.5,194C 714.179,189.977 714.512,185.643 710.5,181C 699.046,176.404 687.38,172.404 675.5,169C 662.835,164.165 656.835,154.999 657.5,141.5C 657.742,123.93 666.408,113.263 683.5,109.5 Z"/></g>
<g><path style="opacity:1" fill="#f1b71b" d="M 206.5,109.5 C 213.422,111.961 219.756,115.461 225.5,120C 242.157,135.637 248.657,154.804 245,177.5C 237.173,207.166 218.006,223.166 187.5,225.5C 187.5,224.167 187.5,222.833 187.5,221.5C 188.114,215.097 189.114,208.764 190.5,202.5C 214.272,196.996 224.772,181.996 222,157.5C 221.09,152.349 219.09,147.682 216,143.5C 211.891,139.22 207.724,135.22 203.5,131.5C 204.499,124.169 205.499,116.836 206.5,109.5 Z"/></g>
<g><path style="opacity:1" fill="#46ac57" d="M 176.5,127.5 C 172.912,150.366 168.912,173.033 164.5,195.5C 160.933,193.443 157.766,190.777 155,187.5C 146.022,172.219 146.355,157.219 156,142.5C 162.033,136.1 168.866,131.1 176.5,127.5 Z"/></g>
<g><path style="opacity:1" fill="#44ac57" d="M 203.5,131.5 C 207.724,135.22 211.891,139.22 216,143.5C 219.09,147.682 221.09,152.349 222,157.5C 224.772,181.996 214.272,196.996 190.5,202.5C 194.474,178.642 198.807,154.975 203.5,131.5 Z"/></g>
<g><path style="opacity:0.816" fill="#16365b" d="M 179.5,303.5 C 181.527,303.338 183.527,303.505 185.5,304C 184.245,306.705 182.245,308.538 179.5,309.5C 178.833,309.167 178.167,308.833 177.5,308.5C 178.456,306.925 179.123,305.258 179.5,303.5 Z"/></g>
<g><path style="opacity:0.943" fill="#16365b" d="M 106.5,304.5 C 107.833,304.5 109.167,304.5 110.5,304.5C 110.5,313.5 110.5,322.5 110.5,331.5C 115.833,331.5 121.167,331.5 126.5,331.5C 126.5,332.833 126.5,334.167 126.5,335.5C 119.833,335.5 113.167,335.5 106.5,335.5C 106.5,325.167 106.5,314.833 106.5,304.5 Z"/></g>
<g><path style="opacity:0.747" fill="#16365b" d="M 230.5,304.5 C 232.167,304.5 233.833,304.5 235.5,304.5C 235.5,305.833 235.5,307.167 235.5,308.5C 233.833,308.5 232.167,308.5 230.5,308.5C 230.5,307.167 230.5,305.833 230.5,304.5 Z"/></g>
<g><path style="opacity:0.778" fill="#16365b" d="M 267.5,304.5 C 269.369,306.635 270.036,309.302 269.5,312.5C 270.833,312.5 272.167,312.5 273.5,312.5C 273.5,313.833 273.5,315.167 273.5,316.5C 272.167,316.5 270.833,316.5 269.5,316.5C 269.334,321.179 269.501,325.845 270,330.5C 271.011,331.337 272.178,331.67 273.5,331.5C 273.5,332.833 273.5,334.167 273.5,335.5C 270.315,335.98 267.481,335.314 265,333.5C 264.501,327.843 264.334,322.176 264.5,316.5C 263.5,316.5 262.5,316.5 261.5,316.5C 261.5,315.167 261.5,313.833 261.5,312.5C 262.5,312.5 263.5,312.5 264.5,312.5C 263.829,309.014 264.829,306.347 267.5,304.5 Z"/></g>
<g><path style="opacity:0.778" fill="#16365b" d="M 365.5,304.5 C 367.369,306.635 368.036,309.302 367.5,312.5C 368.833,312.5 370.167,312.5 371.5,312.5C 371.5,313.833 371.5,315.167 371.5,316.5C 370.167,316.5 368.833,316.5 367.5,316.5C 367.334,321.179 367.501,325.845 368,330.5C 369.011,331.337 370.178,331.67 371.5,331.5C 371.5,332.833 371.5,334.167 371.5,335.5C 368.315,335.98 365.481,335.314 363,333.5C 362.501,327.843 362.334,322.176 362.5,316.5C 361.5,316.5 360.5,316.5 359.5,316.5C 359.5,315.167 359.5,313.833 359.5,312.5C 360.5,312.5 361.5,312.5 362.5,312.5C 361.829,309.014 362.829,306.347 365.5,304.5 Z"/></g>
<g><path style="opacity:0.747" fill="#16365b" d="M 373.5,304.5 C 375.167,304.5 376.833,304.5 378.5,304.5C 378.5,305.833 378.5,307.167 378.5,308.5C 376.833,308.5 375.167,308.5 373.5,308.5C 373.5,307.167 373.5,305.833 373.5,304.5 Z"/></g>
<g><path style="opacity:0.746" fill="#16365b" d="M 454.5,304.5 C 456.167,304.5 457.833,304.5 459.5,304.5C 459.5,314.833 459.5,325.167 459.5,335.5C 457.833,335.5 456.167,335.5 454.5,335.5C 454.5,325.167 454.5,314.833 454.5,304.5 Z"/></g>
<g><path style="opacity:0.844" fill="#16365b" d="M 491.5,304.5 C 492.833,304.5 494.167,304.5 495.5,304.5C 495.5,314.833 495.5,325.167 495.5,335.5C 493.549,335.773 492.049,335.107 491,333.5C 483.607,337.532 478.607,335.532 476,327.5C 475.113,322.928 475.78,318.595 478,314.5C 482.076,310.966 486.409,310.633 491,313.5C 491.498,310.518 491.665,307.518 491.5,304.5 Z M 484.5,315.5 C 489.143,316.318 491.476,319.151 491.5,324C 490.955,330.685 487.788,332.518 482,329.5C 479.425,324.034 480.258,319.367 484.5,315.5 Z"/></g>
<g><path style="opacity:0.876" fill="#16365b" d="M 536.5,304.5 C 542.842,304.334 549.175,304.5 555.5,305C 557.667,305.833 559.167,307.333 560,309.5C 561.193,314.152 560.36,318.319 557.5,322C 552.264,323.339 546.93,323.839 541.5,323.5C 541.5,327.5 541.5,331.5 541.5,335.5C 539.833,335.5 538.167,335.5 536.5,335.5C 536.5,325.167 536.5,314.833 536.5,304.5 Z M 541.5,308.5 C 545.182,308.335 548.848,308.501 552.5,309C 556.729,312.843 556.395,316.177 551.5,319C 548.183,319.498 544.85,319.665 541.5,319.5C 541.5,315.833 541.5,312.167 541.5,308.5 Z"/></g>
<g><path style="opacity:0.746" fill="#16365b" d="M 588.5,304.5 C 590.167,304.5 591.833,304.5 593.5,304.5C 593.5,314.833 593.5,325.167 593.5,335.5C 591.833,335.5 590.167,335.5 588.5,335.5C 588.5,325.167 588.5,314.833 588.5,304.5 Z"/></g>
<g><path style="opacity:0.747" fill="#16365b" d="M 621.5,304.5 C 623.167,304.5 624.833,304.5 626.5,304.5C 626.5,305.833 626.5,307.167 626.5,308.5C 624.833,308.5 623.167,308.5 621.5,308.5C 621.5,307.167 621.5,305.833 621.5,304.5 Z"/></g>
<g><path style="opacity:0.824" fill="#16365b" d="M 169.5,327.5 C 167.047,334.727 162.047,337.227 154.5,335C 146.5,327.333 146.5,319.667 154.5,312C 158.295,311.163 161.961,311.496 165.5,313C 167.332,314.489 168.165,316.322 168,318.5C 167.275,319.059 166.442,319.392 165.5,319.5C 161.048,313.94 157.214,314.273 154,320.5C 152.699,325.562 154.366,329.229 159,331.5C 161.722,331.059 163.556,329.559 164.5,327C 166.265,326.36 167.932,326.527 169.5,327.5 Z"/></g>
<g><path style="opacity:0.872" fill="#16365b" d="M 169.5,327.5 C 168.725,314.761 174.391,309.928 186.5,313C 189.966,316.04 191.3,319.874 190.5,324.5C 185.167,324.5 179.833,324.5 174.5,324.5C 177.231,332.298 181.565,333.298 187.5,327.5C 189,327.453 190,328.119 190.5,329.5C 189.872,331.258 188.872,332.758 187.5,334C 179.092,337.705 173.092,335.538 169.5,327.5 Z M 178.5,315.5 C 182.227,315.195 184.894,316.695 186.5,320C 182.459,320.827 178.459,320.66 174.5,319.5C 175.549,317.784 176.882,316.451 178.5,315.5 Z"/></g>
<g><path style="opacity:0.868" fill="#16365b" d="M 200.5,311.5 C 210.34,310.342 215.007,314.675 214.5,324.5C 209.167,324.5 203.833,324.5 198.5,324.5C 201.231,332.298 205.565,333.298 211.5,327.5C 213,327.453 214,328.119 214.5,329.5C 213.699,332.133 212.033,333.967 209.5,335C 197.075,337.242 191.909,332.075 194,319.5C 195.001,315.801 197.168,313.134 200.5,311.5 Z M 202.5,315.5 C 206.227,315.195 208.894,316.695 210.5,320C 206.459,320.827 202.459,320.66 198.5,319.5C 199.549,317.784 200.882,316.451 202.5,315.5 Z"/></g>
<g><path style="opacity:0.846" fill="#16365b" d="M 247.5,311.5 C 251.839,310.846 255.673,311.846 259,314.5C 259.5,321.492 259.666,328.492 259.5,335.5C 258.167,335.5 256.833,335.5 255.5,335.5C 255.666,330.156 255.499,324.823 255,319.5C 252.105,314.34 249.105,314.34 246,319.5C 245.501,324.823 245.334,330.156 245.5,335.5C 243.833,335.5 242.167,335.5 240.5,335.5C 240.5,327.833 240.5,320.167 240.5,312.5C 242.467,312.261 244.301,312.594 246,313.5C 246.717,312.956 247.217,312.289 247.5,311.5 Z"/></g>
<g><path style="opacity:0.868" fill="#16365b" d="M 281.5,311.5 C 291.34,310.342 296.007,314.675 295.5,324.5C 290.167,324.5 284.833,324.5 279.5,324.5C 282.231,332.298 286.565,333.298 292.5,327.5C 294,327.453 295,328.119 295.5,329.5C 294.699,332.133 293.033,333.967 290.5,335C 278.075,337.242 272.909,332.075 275,319.5C 276.001,315.801 278.168,313.134 281.5,311.5 Z M 283.5,315.5 C 287.227,315.195 289.894,316.695 291.5,320C 287.459,320.827 283.459,320.66 279.5,319.5C 280.549,317.784 281.882,316.451 283.5,315.5 Z"/></g>
<g><path style="opacity:0.783" fill="#16365b" d="M 305.5,311.5 C 307.527,311.338 309.527,311.505 311.5,312C 312.93,313.88 312.596,315.38 310.5,316.5C 307.744,315.367 305.911,316.367 305,319.5C 304.501,324.823 304.334,330.156 304.5,335.5C 302.833,335.5 301.167,335.5 299.5,335.5C 299.5,327.833 299.5,320.167 299.5,312.5C 301.735,312.795 303.735,312.461 305.5,311.5 Z"/></g>
<g><path style="opacity:0.846" fill="#16365b" d="M 321.5,311.5 C 325.839,310.846 329.673,311.846 333,314.5C 333.5,321.492 333.666,328.492 333.5,335.5C 332.167,335.5 330.833,335.5 329.5,335.5C 329.666,330.156 329.499,324.823 329,319.5C 326.105,314.34 323.105,314.34 320,319.5C 319.501,324.823 319.334,330.156 319.5,335.5C 317.833,335.5 316.167,335.5 314.5,335.5C 314.5,327.833 314.5,320.167 314.5,312.5C 316.467,312.261 318.301,312.594 320,313.5C 320.717,312.956 321.217,312.289 321.5,311.5 Z"/></g>
<g><path style="opacity:0.851" fill="#16365b" d="M 342.5,311.5 C 345.85,311.335 349.183,311.502 352.5,312C 353.931,312.465 355.097,313.299 356,314.5C 356.325,321.524 356.825,328.524 357.5,335.5C 355.234,335.859 353.401,335.192 352,333.5C 347.333,336.167 342.667,336.167 338,333.5C 335.926,330.209 336.092,327.043 338.5,324C 343.105,322.273 347.772,320.773 352.5,319.5C 351.722,317.055 350.055,315.722 347.5,315.5C 344.679,316.074 342.346,317.408 340.5,319.5C 337.918,319.253 337.085,317.92 338,315.5C 339.397,313.93 340.897,312.596 342.5,311.5 Z M 345.5,325.5 C 354.303,326.045 354.303,328.045 345.5,331.5C 340.222,329.409 340.222,327.409 345.5,325.5 Z"/></g>
<g><path style="opacity:0.816" fill="#16365b" d="M 388.5,311.5 C 402.142,310.985 406.976,317.318 403,330.5C 399.255,335.155 394.422,336.655 388.5,335C 385.619,333.749 383.786,331.583 383,328.5C 381.076,321.441 382.91,315.775 388.5,311.5 Z M 391.5,315.5 C 398.955,317.076 401.122,321.41 398,328.5C 391.764,332.968 388.264,331.301 387.5,323.5C 387.282,319.934 388.616,317.268 391.5,315.5 Z"/></g>
<g><path style="opacity:0.846" fill="#16365b" d="M 414.5,311.5 C 418.839,310.846 422.673,311.846 426,314.5C 426.5,321.492 426.666,328.492 426.5,335.5C 425.167,335.5 423.833,335.5 422.5,335.5C 422.666,330.156 422.499,324.823 422,319.5C 419.105,314.34 416.105,314.34 413,319.5C 412.501,324.823 412.334,330.156 412.5,335.5C 410.833,335.5 409.167,335.5 407.5,335.5C 407.5,327.833 407.5,320.167 407.5,312.5C 409.467,312.261 411.301,312.594 413,313.5C 413.717,312.956 414.217,312.289 414.5,311.5 Z"/></g>
<g><path style="opacity:0.851" fill="#16365b" d="M 435.5,311.5 C 438.85,311.335 442.183,311.502 445.5,312C 446.931,312.465 448.097,313.299 449,314.5C 449.325,321.524 449.825,328.524 450.5,335.5C 448.234,335.859 446.401,335.192 445,333.5C 440.333,336.167 435.667,336.167 431,333.5C 428.926,330.209 429.092,327.043 431.5,324C 436.105,322.273 440.772,320.773 445.5,319.5C 444.722,317.055 443.055,315.722 440.5,315.5C 437.679,316.074 435.346,317.408 433.5,319.5C 430.918,319.253 430.085,317.92 431,315.5C 432.397,313.93 433.897,312.596 435.5,311.5 Z M 438.5,325.5 C 447.303,326.045 447.303,328.045 438.5,331.5C 433.222,329.409 433.222,327.409 438.5,325.5 Z"/></g>
<g><path style="opacity:0.868" fill="#16365b" d="M 506.5,311.5 C 516.34,310.342 521.007,314.675 520.5,324.5C 515.167,324.5 509.833,324.5 504.5,324.5C 507.231,332.298 511.565,333.298 517.5,327.5C 519,327.453 520,328.119 520.5,329.5C 519.699,332.133 518.033,333.967 515.5,335C 503.075,337.242 497.909,332.075 500,319.5C 501.001,315.801 503.168,313.134 506.5,311.5 Z M 508.5,315.5 C 512.227,315.195 514.894,316.695 516.5,320C 512.459,320.827 508.459,320.66 504.5,319.5C 505.549,317.784 506.882,316.451 508.5,315.5 Z"/></g>
<g><path style="opacity:0.851" fill="#16365b" d="M 569.5,311.5 C 572.85,311.335 576.183,311.502 579.5,312C 580.931,312.465 582.097,313.299 583,314.5C 583.325,321.524 583.825,328.524 584.5,335.5C 582.234,335.859 580.401,335.192 579,333.5C 574.333,336.167 569.667,336.167 565,333.5C 562.926,330.209 563.092,327.043 565.5,324C 570.105,322.273 574.772,320.773 579.5,319.5C 578.722,317.055 577.055,315.722 574.5,315.5C 571.679,316.074 569.346,317.408 567.5,319.5C 564.918,319.253 564.085,317.92 565,315.5C 566.397,313.93 567.897,312.596 569.5,311.5 Z M 572.5,325.5 C 581.303,326.045 581.303,328.045 572.5,331.5C 567.222,329.409 567.222,327.409 572.5,325.5 Z"/></g>
<g><path style="opacity:0.851" fill="#16365b" d="M 602.5,311.5 C 605.85,311.335 609.183,311.502 612.5,312C 613.931,312.465 615.097,313.299 616,314.5C 616.325,321.524 616.825,328.524 617.5,335.5C 615.234,335.859 613.401,335.192 612,333.5C 607.333,336.167 602.667,336.167 598,333.5C 595.926,330.209 596.092,327.043 598.5,324C 603.105,322.273 607.772,320.773 612.5,319.5C 611.722,317.055 610.055,315.722 607.5,315.5C 604.679,316.074 602.346,317.408 600.5,319.5C 597.918,319.253 597.085,317.92 598,315.5C 599.397,313.93 600.897,312.596 602.5,311.5 Z M 605.5,325.5 C 614.303,326.045 614.303,328.045 605.5,331.5C 600.222,329.409 600.222,327.409 605.5,325.5 Z"/></g>
<g><path style="opacity:0.843" fill="#16365b" d="M 635.5,311.5 C 638.518,311.335 641.518,311.502 644.5,312C 648.866,313.698 649.366,315.865 646,318.5C 644.039,317.103 641.872,316.103 639.5,315.5C 637.792,315.703 636.459,316.536 635.5,318C 640.174,319.794 644.674,321.961 649,324.5C 649.651,334.159 645.151,337.659 635.5,335C 632.967,333.967 631.301,332.133 630.5,329.5C 631,328.119 632,327.453 633.5,327.5C 635.346,329.592 637.679,330.926 640.5,331.5C 643.779,331.253 644.779,329.753 643.5,327C 639.38,326.181 635.546,324.681 632,322.5C 630.053,317.842 631.219,314.176 635.5,311.5 Z"/></g>
<g><path style="opacity:0.868" fill="#16365b" d="M 658.5,311.5 C 668.34,310.342 673.007,314.675 672.5,324.5C 667.167,324.5 661.833,324.5 656.5,324.5C 659.231,332.298 663.565,333.298 669.5,327.5C 671,327.453 672,328.119 672.5,329.5C 671.699,332.133 670.033,333.967 667.5,335C 655.075,337.242 649.909,332.075 652,319.5C 653.001,315.801 655.168,313.134 658.5,311.5 Z M 660.5,315.5 C 664.227,315.195 666.894,316.695 668.5,320C 664.459,320.827 660.459,320.66 656.5,319.5C 657.549,317.784 658.882,316.451 660.5,315.5 Z"/></g>
<g><path style="opacity:0.851" fill="#16365b" d="M 681.5,311.5 C 684.85,311.335 688.183,311.502 691.5,312C 692.931,312.465 694.097,313.299 695,314.5C 695.325,321.524 695.825,328.524 696.5,335.5C 694.234,335.859 692.401,335.192 691,333.5C 686.333,336.167 681.667,336.167 677,333.5C 674.926,330.209 675.092,327.043 677.5,324C 682.105,322.273 686.772,320.773 691.5,319.5C 690.722,317.055 689.055,315.722 686.5,315.5C 683.679,316.074 681.346,317.408 679.5,319.5C 676.918,319.253 676.085,317.92 677,315.5C 678.397,313.93 679.897,312.596 681.5,311.5 Z M 684.5,325.5 C 693.303,326.045 693.303,328.045 684.5,331.5C 679.222,329.409 679.222,327.409 684.5,325.5 Z"/></g>
<g><path style="opacity:0.792" fill="#16365b" d="M 125.5,313.5 C 127.265,312.539 129.265,312.205 131.5,312.5C 132.565,317.696 134.232,322.696 136.5,327.5C 138.429,322.882 140.262,318.216 142,313.5C 143.356,312.62 144.856,312.286 146.5,312.5C 143.641,321.91 140.474,331.243 137,340.5C 134.805,343.963 131.639,345.296 127.5,344.5C 127.34,342.801 127.506,341.134 128,339.5C 129.049,340.517 130.216,340.684 131.5,340C 132.87,338.559 133.87,336.892 134.5,335C 131.381,327.791 128.381,320.624 125.5,313.5 Z"/></g>
<g><path style="opacity:0.747" fill="#16365b" d="M 230.5,312.5 C 232.167,312.5 233.833,312.5 235.5,312.5C 235.5,320.167 235.5,327.833 235.5,335.5C 233.833,335.5 232.167,335.5 230.5,335.5C 230.5,327.833 230.5,320.167 230.5,312.5 Z"/></g>
<g><path style="opacity:0.747" fill="#16365b" d="M 373.5,312.5 C 375.167,312.5 376.833,312.5 378.5,312.5C 378.5,320.167 378.5,327.833 378.5,335.5C 376.833,335.5 375.167,335.5 373.5,335.5C 373.5,327.833 373.5,320.167 373.5,312.5 Z"/></g>
<g><path style="opacity:0.747" fill="#16365b" d="M 621.5,312.5 C 623.167,312.5 624.833,312.5 626.5,312.5C 626.5,320.167 626.5,327.833 626.5,335.5C 624.833,335.5 623.167,335.5 621.5,335.5C 621.5,327.833 621.5,320.167 621.5,312.5 Z"/></g>
<g><path style="opacity:0.84" fill="#16365b" d="M 700.5,312.5 C 702.167,312.5 703.833,312.5 705.5,312.5C 705.334,317.844 705.501,323.177 706,328.5C 708.503,332.29 711.17,332.29 714,328.5C 715.339,323.264 715.839,317.93 715.5,312.5C 716.833,312.5 718.167,312.5 719.5,312.5C 719.5,320.167 719.5,327.833 719.5,335.5C 717.549,335.773 716.049,335.107 715,333.5C 710.335,336.456 706.002,336.122 702,332.5C 700.58,325.95 700.08,319.284 700.5,312.5 Z"/></g>
<g><path style="opacity:0.913" fill="#16365b" d="M 540.5,355.5 C 546.659,355.216 552.659,356.049 558.5,358C 561.756,359.459 564.423,361.626 566.5,364.5C 564.528,368.105 561.861,371.105 558.5,373.5C 550.501,366.086 542.335,365.753 534,372.5C 528.732,381.321 529.565,389.488 536.5,397C 544.845,401.117 552.345,399.95 559,393.5C 562.98,395.451 565.314,398.451 566,402.5C 554.107,412.968 541.274,414.135 527.5,406C 513.042,390.975 513.042,375.975 527.5,361C 531.717,358.549 536.05,356.715 540.5,355.5 Z"/></g>
<g><path style="opacity:0.954" fill="#16365b" d="M 105.5,356.5 C 115.898,356.101 126.232,356.601 136.5,358C 146.713,363.262 150.213,371.429 147,382.5C 144.341,388.492 139.841,392.325 133.5,394C 128.177,394.499 122.844,394.666 117.5,394.5C 117.5,399.833 117.5,405.167 117.5,410.5C 113.5,410.5 109.5,410.5 105.5,410.5C 105.5,392.5 105.5,374.5 105.5,356.5 Z M 117.5,368.5 C 121.514,368.334 125.514,368.501 129.5,369C 135.75,373.118 136.084,377.785 130.5,383C 126.179,383.499 121.846,383.666 117.5,383.5C 117.5,378.5 117.5,373.5 117.5,368.5 Z"/></g>
<g><path style="opacity:0.935" fill="#16365b" d="M 173.5,356.5 C 177.833,356.5 182.167,356.5 186.5,356.5C 193.538,374.249 200.872,391.916 208.5,409.5C 203.88,410.493 199.214,410.827 194.5,410.5C 193.571,406.716 192.238,403.049 190.5,399.5C 183.524,398.336 176.524,398.169 169.5,399C 167.833,402.667 166.167,406.333 164.5,410C 160.129,410.828 155.795,410.661 151.5,409.5C 159.122,391.926 166.455,374.26 173.5,356.5 Z M 179.5,373.5 C 181.578,377.874 183.578,382.374 185.5,387C 181.5,387.667 177.5,387.667 173.5,387C 175.643,382.548 177.643,378.048 179.5,373.5 Z"/></g>
<g><path style="opacity:0.926" fill="#16365b" d="M 221.5,356.5 C 231.839,356.334 242.172,356.5 252.5,357C 265.627,361.314 269.794,370.147 265,383.5C 262.778,387.388 259.612,390.221 255.5,392C 260.078,397.823 264.412,403.823 268.5,410C 263.5,410.667 258.5,410.667 253.5,410C 249.586,404.841 245.92,399.507 242.5,394C 239.854,393.503 237.187,393.336 234.5,393.5C 234.5,399.167 234.5,404.833 234.5,410.5C 230.167,410.5 225.833,410.5 221.5,410.5C 221.5,392.5 221.5,374.5 221.5,356.5 Z M 234.5,368.5 C 239.511,368.334 244.511,368.501 249.5,369C 253.559,371.467 254.559,374.967 252.5,379.5C 251.335,380.584 250.002,381.417 248.5,382C 243.845,382.499 239.179,382.666 234.5,382.5C 234.5,377.833 234.5,373.167 234.5,368.5 Z"/></g>
<g><path style="opacity:0.916" fill="#16365b" d="M 282.5,356.5 C 286.833,356.5 291.167,356.5 295.5,356.5C 295.5,374.5 295.5,392.5 295.5,410.5C 291.167,410.5 286.833,410.5 282.5,410.5C 282.5,392.5 282.5,374.5 282.5,356.5 Z"/></g>
<g><path style="opacity:0.916" fill="#16365b" d="M 323.5,356.5 C 333.931,354.803 343.264,357.137 351.5,363.5C 349.492,367 346.992,370 344,372.5C 338.756,368.358 332.922,367.025 326.5,368.5C 323.563,371.865 324.23,374.365 328.5,376C 333.894,377.465 339.228,379.131 344.5,381C 352.945,387.126 354.778,394.959 350,404.5C 347.222,407.807 343.722,409.974 339.5,411C 330.701,412.445 322.368,411.111 314.5,407C 312.415,405.959 310.748,404.459 309.5,402.5C 311.523,399.131 314.023,396.131 317,393.5C 323.3,399.444 330.467,401.111 338.5,398.5C 341.115,394.864 340.115,392.364 335.5,391C 329.284,389.614 323.284,387.614 317.5,385C 309.5,376.667 309.5,368.333 317.5,360C 319.432,358.541 321.432,357.375 323.5,356.5 Z"/></g>
<g><path style="opacity:0.92" fill="#16365b" d="M 414.5,356.5 C 422.503,355.708 430.169,356.875 437.5,360C 439.327,360.899 440.66,362.233 441.5,364C 439.693,367.117 437.526,369.95 435,372.5C 430.752,370.125 426.252,368.458 421.5,367.5C 418.161,367.499 415.828,368.999 414.5,372C 415.167,374 416.5,375.333 418.5,376C 425.497,377.415 432.164,379.748 438.5,383C 444.932,390.91 444.932,398.91 438.5,407C 426.756,413.154 415.089,412.821 403.5,406C 402.101,404.938 401.101,403.605 400.5,402C 402.661,399.008 404.994,396.174 407.5,393.5C 411.975,397.32 417.142,399.653 423,400.5C 428.158,400.678 430.491,398.345 430,393.5C 429.5,393 429,392.5 428.5,392C 420.943,389.944 413.609,387.278 406.5,384C 401.223,376.362 401.223,368.695 406.5,361C 409.099,359.205 411.766,357.705 414.5,356.5 Z"/></g>
<g><path style="opacity:0.936" fill="#16365b" d="M 475.5,356.5 C 479.555,356.176 483.555,356.509 487.5,357.5C 494.833,374.833 502.167,392.167 509.5,409.5C 505.205,410.661 500.871,410.828 496.5,410C 494.833,406.333 493.167,402.667 491.5,399C 484.5,398.333 477.5,398.333 470.5,399C 468.833,402.667 467.167,406.333 465.5,410C 461.129,410.828 456.795,410.661 452.5,409.5C 459.979,391.722 467.646,374.055 475.5,356.5 Z M 480.5,372.5 C 483.266,377.117 485.266,382.117 486.5,387.5C 482.774,387.823 479.107,387.489 475.5,386.5C 477.572,381.95 479.238,377.283 480.5,372.5 Z"/></g>
<g><path style="opacity:0.984" fill="#16365b" d="M 581.5,356.5 C 585.5,356.5 589.5,356.5 593.5,356.5C 593.5,370.833 593.5,385.167 593.5,399.5C 602.5,399.5 611.5,399.5 620.5,399.5C 620.5,403.167 620.5,406.833 620.5,410.5C 607.5,410.5 594.5,410.5 581.5,410.5C 581.5,392.5 581.5,374.5 581.5,356.5 Z"/></g>
<g><path style="opacity:0.932" fill="#16365b" d="M 651.5,356.5 C 655.767,356.203 659.934,356.536 664,357.5C 671.597,374.792 679.097,392.125 686.5,409.5C 682.205,410.661 677.871,410.828 673.5,410C 671.833,406.333 670.167,402.667 668.5,399C 661.174,398.5 653.841,398.334 646.5,398.5C 645.469,402.427 644.135,406.261 642.5,410C 638.179,410.499 633.846,410.666 629.5,410.5C 636.827,392.511 644.16,374.511 651.5,356.5 Z M 657.5,373.5 C 659.725,377.623 661.725,381.956 663.5,386.5C 659.893,387.489 656.226,387.823 652.5,387.5C 653.77,382.688 655.437,378.022 657.5,373.5 Z"/></g>
<g><path style="opacity:0.926" fill="#16365b" d="M 685.5,357.5 C 690.316,356.35 695.316,356.184 700.5,357C 704.124,363.751 708.124,370.251 712.5,376.5C 716.75,370.335 720.75,364.002 724.5,357.5C 729.5,356.167 734.5,356.167 739.5,357.5C 732.469,368.033 725.636,378.699 719,389.5C 718.5,396.492 718.334,403.492 718.5,410.5C 714.5,410.5 710.5,410.5 706.5,410.5C 706.666,403.492 706.5,396.492 706,389.5C 699.304,378.659 692.47,367.992 685.5,357.5 Z"/></g>
<g><path style="opacity:0.841" fill="#16365b" d="M 364.5,380.5 C 372.833,380.5 381.167,380.5 389.5,380.5C 389.5,384.833 389.5,389.167 389.5,393.5C 381.167,393.5 372.833,393.5 364.5,393.5C 364.5,389.167 364.5,384.833 364.5,380.5 Z"/></g>
</svg>
