<svg class="img-fluid" id="outputsvg" xmlns="http://www.w3.org/2000/svg" style="transform: matrix(0.856831, 0, 0, 0.856831, 30.288, 31.7452); transform-origin: 50% 50% 0px; cursor: move; max-height: none; transition: none;" width="840" height="404" viewBox="0 0 8400 4040"><g id="l4aywgZk59yXFAq7XQiIkEK" fill="rgb(255,255,255)" style="transform: none;"><g style="transform: none;"><path id="pC739FAQ6" d="M0 2020 l0 -2020 4200 0 4200 0 0 2020 0 2020 -4200 0 -4200 0 0 -2020z m3287 1889 l33 -21 15 -28 15 -29 0 -25 0 -26 -28 -31 -29 -32 -99 -32 -99 -32 -3 -52 -3 -53 12 -15 13 -15 81 4 c44 3 88 8 98 12 l17 8 0 -15 0 -15 -42 -17 -43 -17 -41 0 -42 -1 -32 19 c-18 10 -42 31 -53 46 l-20 27 0 32 0 32 35 32 35 33 59 16 c33 9 75 22 94 29 l35 13 9 25 9 26 -7 35 -6 36 -31 12 -30 13 -62 -5 -63 -5 -31 -17 -32 -16 -6 10 -6 9 25 17 c14 9 45 22 68 30 l43 14 40 -6 39 -5 33 -20z m864 5 l30 -15 19 -32 20 -32 0 -28 0 -29 -33 -33 -32 -32 -86 -26 -86 -27 -16 -18 -17 -19 0 -35 0 -35 19 -18 20 -17 78 4 c43 3 86 8 96 12 l17 8 0 -15 0 -15 -42 -17 -43 -17 -41 0 -42 -1 -32 19 c-18 10 -42 31 -53 46 l-20 27 0 32 0 32 35 32 35 33 59 16 c33 9 75 22 94 29 l35 13 3 56 3 57 -26 17 -26 17 -67 -5 -67 -5 -32 -16 -32 -17 -6 10 -6 9 25 17 c14 9 45 22 68 30 l43 14 39 -6 c21 -2 51 -11 67 -20z m-3051 -59 l0 -75 56 0 55 0 46 -11 45 -12 38 -36 38 -36 7 -37 7 -36 -18 -37 -17 -37 -40 -26 -40 -27 -114 -3 -113 -4 0 226 0 226 25 0 25 0 0 -75z m473 21 l17 -53 53 -7 c28 -3 86 -6 127 -6 l75 0 13 8 13 9 18 49 19 49 21 3 20 3 -39 -93 c-21 -51 -64 -151 -94 -223 l-55 -130 -14 -9 -14 -9 -14 5 -14 6 -87 210 c-48 115 -91 217 -94 226 l-6 16 19 0 19 0 17 -54z m647 -26 l0 -80 68 0 67 0 11 8 c6 4 32 40 58 80 l47 72 15 0 16 0 -17 -27 c-10 -16 -28 -42 -41 -60 l-24 -32 0 -30 0 -30 29 -16 c16 -8 39 -26 50 -41 l20 -26 7 -33 6 -32 -21 -41 -20 -40 -44 -21 -43 -21 -117 0 -117 0 0 225 0 225 25 0 25 0 0 -80z m590 -145 l0 -225 -30 0 -30 0 0 225 0 225 30 0 30 0 0 -225z m1653 168 l19 -51 21 -6 c12 -3 68 -6 125 -6 l103 0 19 10 18 10 17 50 17 50 18 0 19 0 -43 -102 c-24 -57 -65 -152 -90 -213 -26 -60 -50 -117 -55 -125 l-8 -15 -22 -3 -21 -3 -6 18 c-4 10 -47 112 -95 226 -49 115 -89 211 -89 214 0 2 8 3 17 1 l18 -3 18 -52z m854 42 c20 -9 42 -20 50 -26 l13 -11 -6 -9 -5 -9 -22 15 -21 15 -81 0 -80 0 -33 -20 -33 -20 -19 -43 -20 -42 0 -65 0 -65 19 -35 18 -35 32 -22 32 -22 52 -6 52 -7 48 17 47 16 11 -6 10 -7 -11 -13 -11 -14 -46 -15 -47 -16 -30 0 -31 0 -50 24 -50 23 -37 41 -37 41 -15 52 -16 52 7 26 c3 14 16 46 28 71 l23 45 24 21 c12 12 41 31 63 42 l40 21 48 1 48 0 36 -15z m613 -5 l0 -19 -127 -3 -128 -3 -3 -202 -2 -203 -25 0 -25 0 0 225 0 225 155 0 155 0 0 -20z m229 -30 c9 -25 20 -51 24 -58 l8 -12 120 0 120 0 18 10 18 9 13 47 13 46 14 5 14 5 6 -5 6 -6 -93 -218 c-51 -120 -97 -221 -103 -224 l-9 -7 -17 5 -17 4 -92 218 c-51 119 -92 220 -92 225 l0 7 17 -3 16 -3 16 -45z m711 -48 l0 -98 44 -69 c25 -39 61 -96 80 -127 l35 -58 -18 0 -17 0 -59 100 -58 100 -32 0 -31 0 -59 -100 -58 -100 -18 0 -18 0 79 127 80 127 0 98 0 98 25 0 25 0 0 -98z m-3160 -97 l0 -25 -85 0 -85 0 0 25 0 25 85 0 85 0 0 -25z m1875 -1140 c88 -8 169 -15 179 -15 l19 0 -5 -6 -6 -5 -214 16 c-117 8 -323 20 -458 25 l-245 9 285 -5 285 -5 160 -14z m-922 8 l-13 -5 -12 5 -13 5 25 0 25 0 -12 -5z m1175 -40 c-10 -2 -26 -2 -35 0 l-18 5 35 0 35 0 -17 -5z m85 -10 c-7 -2 -21 -2 -30 0 l-18 5 30 0 30 0 -12 -5z m64 -10 l-7 -6 -7 6 -6 7 13 0 13 0 -6 -7z m70 -10 l-7 -6 -7 6 -6 7 13 0 13 0 -6 -7z m53 -8 c0 -3 -2 -5 -5 -5 -3 0 -5 2 -5 5 0 3 2 5 5 5 3 0 5 -2 5 -5z m-4145 -190 l60 -16 81 -40 81 -39 65 -55 66 -54 51 -63 51 -62 40 -81 40 -80 21 -80 20 -80 0 -115 1 -115 -47 -105 -47 -105 -51 -74 -51 -74 -58 -51 -58 -51 -82 -48 -82 -47 -9 15 -8 15 -6 85 -6 85 -7 0 -8 0 -10 58 c-26 141 -123 691 -146 824 l-26 147 0 45 0 46 -9 0 -8 0 -6 45 c-4 25 -10 57 -13 72 l-7 26 54 -6 c30 -4 81 -14 114 -22z m-480 -77 c8 -34 148 -839 194 -1113 23 -132 43 -252 47 -268 l6 -27 -27 0 c-15 0 -55 7 -89 16 l-61 15 -80 39 -80 40 -68 54 -69 54 -54 69 -55 68 -39 80 -39 80 -17 65 -18 65 0 105 0 105 18 65 17 65 39 81 39 81 54 69 54 69 59 46 c59 46 143 99 156 99 4 0 10 -10 13 -22z m5365 -213 l45 -16 46 -34 47 -34 28 -58 29 -58 0 -55 -1 -56 -27 -46 -27 -46 -30 -25 c-16 -14 -53 -37 -82 -51 l-53 -25 -125 -36 c-68 -20 -137 -44 -152 -53 l-27 -16 -12 -28 -12 -28 6 -46 5 -46 25 -26 26 -26 84 -4 84 -4 59 17 c32 9 74 25 92 36 l34 19 7 -4 c4 -3 20 -23 36 -45 l27 -40 -5 -14 -5 -13 -66 -33 -65 -32 -73 -15 -73 -16 -50 5 -50 5 -56 21 -56 21 -39 34 -39 33 -24 49 -24 48 -5 47 -4 47 16 49 16 49 38 36 37 36 43 21 c23 12 97 37 165 57 67 19 141 44 164 55 l41 20 11 31 c6 17 11 44 11 60 l0 29 -14 33 -14 33 -33 14 -34 14 -90 0 -90 0 -53 -18 c-30 -10 -74 -31 -99 -47 l-46 -28 -38 46 -38 47 22 19 c45 38 178 94 257 110 14 2 61 3 105 1 l80 -3 45 -17z m-2960 -60 l0 -75 -247 -2 -248 -3 4 -380 4 -381 -7 -22 -7 -22 -80 0 -79 0 0 480 0 480 330 0 330 0 0 -75z m370 -410 l0 -475 -80 0 -80 0 0 475 0 475 80 0 80 0 0 -475z m390 326 l0 -149 17 -6 16 -7 71 7 71 6 75 -11 75 -11 62 -31 62 -30 45 -50 45 -50 17 -51 17 -51 -1 -53 0 -53 -28 -61 -27 -61 -49 -44 -49 -44 -57 -23 -57 -22 -232 -4 -233 -4 0 476 0 476 80 0 80 0 0 -149z m942 2 l3 -148 130 -6 130 -6 45 -12 c24 -7 66 -24 92 -37 l47 -24 37 -37 37 -36 23 -51 23 -51 6 -45 6 -45 -21 -67 -20 -67 -50 -54 -49 -54 -63 -29 -63 -29 -237 -3 -238 -4 0 476 0 476 80 0 79 0 3 -147z m-3542 -1275 c19 -6 54 -24 77 -40 l42 -29 25 -32 c14 -18 35 -55 47 -82 l21 -48 -5 -63 -5 -63 -25 -44 c-14 -24 -41 -58 -59 -76 l-33 -32 -53 -26 -53 -26 -52 0 -52 1 -47 20 -47 21 -44 40 -43 40 -24 48 -24 48 -4 51 -4 52 16 50 17 50 40 46 40 45 36 22 37 23 46 12 45 12 25 -5 c14 -3 41 -10 60 -15z"></path><path id="p3DnAvo6E" d="M1100 3635 l0 -105 98 0 99 0 16 18 17 19 0 66 0 66 -26 20 -27 21 -88 0 -89 0 0 -105z"></path><path id="pSPoFc6r5" d="M1640 3740 l0 -40 29 -65 30 -65 34 0 35 0 27 74 27 73 -4 29 -3 29 -87 3 -88 3 0 -41z"></path><path id="prMtos8Au" d="M2222 3628 l3 -103 65 -3 c36 -2 84 0 108 3 l43 6 20 20 19 19 0 44 0 45 -9 24 -10 25 -32 11 -32 11 -89 0 -89 0 3 -102z"></path><path id="p13hyZ9VzI" d="M4540 3736 l0 -44 21 -56 22 -56 39 0 39 0 21 48 21 47 5 53 4 52 -86 0 -86 0 0 -44z"></path><path id="ptM963fT9" d="M6230 3745 l0 -35 27 -70 27 -70 36 0 35 0 28 68 27 67 0 38 0 37 -90 0 -90 0 0 -35z"></path><path id="pjOzIgA1v" d="M4650 1426 l0 -186 128 0 127 0 40 11 40 11 28 26 27 26 10 35 c5 20 10 56 10 81 l0 46 -22 44 -23 45 -35 20 -35 20 -147 3 -148 4 0 -186z"></path><path id="pATGKJphV" d="M5590 1425 l0 -187 153 3 152 4 37 23 37 23 17 44 16 44 -4 65 -4 66 -21 27 -20 28 -34 20 -34 20 -147 3 -148 4 0 -187z"></path></g></g><g id="l3ojcbOkUKbP5R5Nnv6bIna" fill="rgb(242,183,26)" style="transform: none;"><g style="transform: none;"><path id="p1BDmSPEcR" d="M1790 2206 l0 -16 10 0 9 0 -5 -13 -5 -14 21 -118 c11 -65 21 -119 23 -119 1 -1 28 -13 59 -28 l57 -27 41 -37 41 -37 24 -41 24 -41 15 -57 15 -58 -15 -56 -14 -56 -26 -44 -26 -44 -46 -40 -45 -41 22 -122 23 -122 8 -3 9 -3 -6 -16 -6 -16 40 5 41 6 59 40 60 40 50 55 50 55 36 73 36 74 12 50 12 50 0 115 1 115 -17 62 c-20 76 -52 142 -103 209 l-39 52 -49 40 c-27 23 -75 54 -105 71 l-56 29 -60 15 c-33 9 -86 19 -117 22 l-58 7 0 -16z"></path><path id="pM7iy9lHG" d="M1431 2109 l-61 -40 -45 -52 -45 -52 -35 -66 -35 -66 -15 -64 -15 -64 0 -105 0 -106 15 -59 15 -60 35 -70 34 -70 40 -46 40 -46 68 -47 68 -46 70 -25 70 -25 52 0 52 0 -4 28 c-20 119 -47 267 -48 268 -1 1 -20 11 -42 22 l-40 20 -48 51 -48 52 -22 47 -21 47 0 66 0 65 27 55 26 55 36 42 36 41 -21 118 c-11 65 -23 130 -26 146 l-6 27 -23 0 -23 0 -61 -41z"></path></g></g><g id="l6nDF7o5sMXq4FbcKvtkosJ" fill="rgb(63,173,88)" style="transform: none;"><g style="transform: none;"><path id="pvaCdYz9E" d="M1844 1946 l-5 -14 55 -311 c30 -171 57 -315 61 -321 10 -16 20 -12 68 30 l45 40 26 44 26 45 16 62 16 63 -6 49 c-4 27 -16 73 -27 102 l-20 54 -44 49 -44 49 -70 37 c-38 20 -74 36 -80 36 l-12 0 -5 -14z"></path><path id="p7vGYb0cd" d="M1530 1851 l-38 -40 -28 -58 -29 -58 0 -95 0 -95 22 -48 22 -47 50 -53 50 -53 51 -24 50 -23 7 6 7 7 -54 310 -54 310 -9 0 c-6 0 -27 -18 -47 -39z"></path></g></g><g id="l7KmhKgao09hgjHhgtBQ4Wt" fill="rgb(191,22,42)" style="transform: none;"><g style="transform: none;"><path id="p11Q58tVP4" d="M6590 2093 c-79 -13 -223 -78 -284 -127 l-28 -24 62 -73 c34 -41 65 -75 69 -77 4 -1 34 15 67 37 l59 39 50 17 50 18 70 1 70 1 31 -17 32 -17 10 -31 11 -30 -10 -29 -11 -30 -41 -20 c-23 -11 -97 -36 -164 -55 -68 -20 -142 -45 -165 -57 l-43 -21 -37 -36 -38 -36 -16 -49 -16 -48 4 -77 3 -77 25 -49 25 -49 39 -33 39 -34 56 -22 56 -23 115 1 115 0 65 23 65 23 58 35 57 34 0 9 c0 5 -23 43 -52 85 l-51 75 -10 0 c-5 0 -33 -13 -61 -29 l-51 -29 -59 -17 -60 -17 -54 5 -54 6 -20 18 c-11 10 -24 29 -30 42 l-9 25 11 26 11 26 27 16 c15 9 84 33 152 53 l125 36 53 25 c29 14 66 37 82 51 l30 25 28 47 27 46 0 86 0 85 -30 60 -31 59 -54 37 -55 38 -60 15 -59 15 -86 -1 c-47 -1 -96 -4 -110 -6z"></path><path id="p10itTw7h" d="M5400 1574 l0 -505 268 3 267 3 63 29 63 29 49 54 50 54 21 71 22 70 -6 70 -6 69 -24 53 -24 53 -37 36 -37 37 -47 24 c-26 13 -68 30 -92 37 l-45 12 -130 6 -130 6 0 148 0 147 -112 0 -113 0 0 -506z m489 -19 c19 -11 42 -31 53 -45 l19 -25 6 -38 6 -37 -17 -45 -17 -44 -37 -23 -36 -22 -123 -4 -123 -4 0 157 0 157 118 -3 117 -4 34 -20z"></path><path id="pM72n1ZKu" d="M1890 666 c-60 -16 -109 -47 -155 -97 l-37 -41 -14 -35 c-8 -19 -19 -57 -24 -86 l-10 -51 10 -54 10 -54 22 -45 22 -44 43 -40 44 -40 44 -19 45 -19 48 -7 49 -6 56 12 56 11 54 35 53 36 33 48 33 49 14 58 14 58 -6 50 -6 50 -19 44 c-11 25 -31 60 -45 78 l-25 32 -43 31 -44 30 -58 15 c-69 18 -103 18 -164 1z"></path></g></g><g id="l4bklYvVquRLZENKBQjzQtp" fill="rgb(22,54,91)" style="transform: none;"><g style="transform: none;"><path id="p80015UHQ" d="M3095 3953 c-28 -10 -65 -29 -83 -41 l-32 -24 19 -27 c11 -15 26 -33 34 -39 l14 -12 44 24 44 24 38 7 37 7 29 -12 29 -12 5 -17 4 -18 -9 -16 -9 -16 -72 -21 c-40 -12 -84 -26 -98 -31 l-27 -10 -28 -30 -29 -30 0 -59 0 -59 21 -28 21 -28 34 -20 34 -20 70 0 70 1 58 26 57 27 0 8 c0 12 -50 83 -58 83 -4 0 -25 -9 -47 -20 l-39 -20 -42 0 -42 0 -12 14 -12 15 4 22 3 22 97 31 97 31 26 25 25 24 10 35 9 36 -8 35 c-4 20 -13 45 -19 57 l-12 21 -36 23 -36 22 -66 4 -67 4 -50 -18z"></path><path id="pKtE1Bgmd" d="M3975 3957 c-42 -14 -125 -58 -125 -67 0 -3 14 -22 31 -43 l30 -37 49 25 48 24 41 7 41 7 25 -17 26 -17 -3 -27 -3 -26 -35 -13 c-19 -7 -61 -20 -94 -29 l-59 -16 -36 -33 -36 -33 0 -60 0 -61 21 -28 21 -28 34 -20 34 -20 70 0 70 1 58 26 c31 15 57 29 57 33 0 11 -50 85 -58 85 -4 0 -25 -9 -47 -20 l-39 -20 -42 0 -41 0 -18 20 -18 20 18 20 18 20 84 26 83 25 30 25 30 25 9 37 10 37 -8 38 c-5 20 -16 49 -25 62 l-16 25 -33 16 -32 17 -65 3 -65 4 -40 -13z"></path><path id="p1DmcWYJx" d="M5180 3961 c-83 -18 -141 -63 -179 -139 l-22 -43 -6 -48 -5 -48 16 -57 17 -57 37 -41 37 -41 50 -23 50 -24 61 0 61 0 41 14 c23 8 55 25 71 37 l30 22 -9 16 c-6 9 -20 29 -33 44 l-23 28 -48 -27 -47 -26 -39 0 -39 1 -29 15 -30 16 -23 31 -22 31 -4 42 -5 43 20 46 21 46 33 21 33 20 50 0 50 0 37 -25 c20 -14 40 -25 43 -25 9 0 65 57 65 65 0 12 -44 46 -85 65 l-40 19 -50 5 -50 5 -35 -8z"></path><path id="pnSDgNSN1" d="M1020 3705 l0 -255 132 0 132 0 43 21 43 21 22 31 22 31 4 56 4 56 -15 36 -15 35 -33 26 -34 25 -40 11 -40 11 -57 0 -58 0 0 75 0 75 -55 0 -55 0 0 -255z m254 -16 l26 -20 0 -36 0 -36 -17 -19 -16 -18 -69 0 -68 0 0 75 0 75 59 0 58 0 27 -21z"></path><path id="pHnym8HFx" d="M1500 3868 c21 -51 70 -167 108 -258 l69 -165 48 -3 48 -3 10 10 c9 9 202 454 214 494 l6 18 -63 -3 -62 -3 -19 -49 -18 -49 -13 -9 -13 -8 -45 0 c-25 0 -69 3 -97 6 l-53 7 -17 53 -17 54 -62 0 -63 0 39 -92z m287 -127 c4 -1 -46 -133 -52 -140 -5 -4 -65 122 -65 138 l0 9 58 -3 c31 -1 58 -3 59 -4z"></path><path id="pXgNyhjOa" d="M2140 3953 c-1 -5 -1 -118 -1 -253 l1 -245 146 -3 147 -3 44 22 44 21 19 39 20 38 0 48 0 48 -18 35 -17 35 -37 24 -36 23 59 84 c32 47 59 87 59 89 0 3 -29 5 -65 5 l-64 0 -47 -72 c-26 -40 -52 -76 -58 -80 -6 -4 -28 -8 -48 -8 l-38 0 0 80 0 80 -55 0 -55 0 0 -7z m264 -267 l34 -14 7 -30 6 -31 -11 -20 -10 -20 -41 -11 -40 -11 -47 3 -47 3 -3 73 -3 72 61 0 61 0 33 -14z"></path><path id="p39NuXIME" d="M2720 3705 l0 -255 60 0 60 0 0 255 0 255 -60 0 -60 0 0 -255z"></path><path id="pWgBJrgfG" d="M4353 3953 c6 -10 201 -470 210 -496 l7 -18 51 3 52 3 8 15 c14 24 209 486 209 493 l0 7 -59 0 -59 0 -17 -50 -17 -50 -18 -10 -19 -10 -73 0 c-40 0 -83 3 -95 6 l-21 6 -19 51 -18 52 -63 3 -64 3 5 -8z m322 -233 c-4 -14 -15 -44 -25 -67 l-19 -43 -9 0 -9 0 -22 56 c-11 31 -21 62 -21 69 l0 13 56 -1 55 -1 -6 -26z"></path><path id="p4NyPrfg3" d="M5590 3705 l0 -255 55 0 55 0 2 203 3 202 128 3 127 3 0 49 0 50 -185 0 -185 0 0 -255z"></path><path id="p1GFwmdifp" d="M6051 3952 c2 -5 51 -120 109 -255 l104 -247 33 -6 33 -6 22 6 23 5 105 247 c58 136 107 251 109 256 l3 9 -63 -3 -62 -3 -16 -48 -17 -49 -14 -8 -15 -7 -93 0 -93 0 -7 11 c-4 6 -14 31 -23 56 l-16 45 -62 3 -63 3 3 -9z m329 -211 c0 -12 -55 -141 -60 -141 -5 0 -60 132 -60 143 0 2 27 4 60 4 l60 0 0 -6z"></path><path id="pllBwS8S5" d="M6790 3862 l0 -98 -95 -152 c-52 -84 -95 -154 -95 -157 0 -3 29 -5 64 -5 l64 0 51 88 c28 48 54 93 59 100 l9 13 58 -100 58 -100 11 -4 c6 -1 36 -1 67 1 l57 4 -59 91 c-32 51 -77 122 -100 159 l-41 67 4 96 3 95 -57 0 -58 0 0 -98z"></path><path id="pv4sTDTx7" d="M3510 3735 l0 -55 115 0 115 0 0 55 0 55 -115 0 -115 0 0 -55z"></path><path id="prFWox3TW" d="M1248 3323 l-18 -4 0 -10 0 -9 24 -11 24 -11 11 -24 10 -24 -34 -89 -35 -90 0 -23 0 -22 16 15 16 16 22 62 22 62 10 -1 9 -1 25 -67 26 -67 16 -3 17 -3 -8 28 c-11 38 -81 224 -92 245 -5 10 -17 21 -27 26 l-17 9 -17 -4z"></path><path id="p13IDAYzOM" d="M1037 3233 l-7 -6 0 -143 0 -143 9 -6 10 -5 8 12 8 13 0 120 0 120 65 3 c36 1 72 5 80 8 l15 5 -19 15 -20 14 -71 0 -72 0 -6 -7z"></path><path id="p16uJ1mjwa" d="M1490 3227 l-25 -12 -12 -25 -13 -25 0 -48 0 -49 29 -29 29 -29 34 0 34 0 22 16 22 15 0 20 0 19 -14 0 c-7 0 -19 -6 -25 -14 -6 -8 -21 -16 -32 -19 l-20 -6 -20 20 -19 19 0 41 0 40 10 20 11 19 22 0 22 0 29 -19 30 -20 8 5 c4 3 8 12 8 20 l0 14 -32 20 -33 20 -20 0 c-11 0 -31 -6 -45 -13z"></path><path id="p14vBcvE2Z" d="M1688 3225 l-27 -15 -11 -20 -10 -19 0 -51 0 -52 38 -35 37 -34 11 -32 11 -32 16 -3 17 -3 0 12 c0 7 -10 23 -21 35 l-21 23 33 14 c19 8 42 23 51 34 l18 19 6 32 7 32 -44 1 c-40 1 -66 0 -94 -4 l-10 -2 -3 32 -3 32 24 6 24 6 38 -15 c21 -9 41 -16 46 -16 l9 0 0 15 0 15 -24 15 -24 16 -33 5 -34 4 -27 -15z m90 -135 l32 0 0 -9 0 -8 -46 -18 -46 -17 -15 15 -16 15 7 17 6 17 23 -6 c12 -3 37 -6 55 -6z"></path><path id="phuUH3lkG" d="M1920 3227 l-25 -13 -14 -28 -13 -28 7 -54 6 -54 29 -20 28 -20 29 0 29 0 23 16 23 17 14 33 c8 18 14 38 14 44 l0 10 -80 0 -80 0 0 19 0 20 16 15 15 16 17 0 c9 0 30 -7 46 -15 15 -8 35 -15 42 -15 l14 0 0 14 0 15 -29 20 -29 21 -29 0 -28 0 -25 -13z m109 -143 c2 -1 -11 -12 -29 -22 l-32 -20 -19 5 c-11 3 -22 10 -25 15 l-6 9 6 15 6 15 47 -7 c27 -3 50 -8 52 -10z"></path><path id="pTIifp0HK" d="M2240 3230 l-15 -8 5 -104 5 -103 10 0 10 0 5 105 5 105 -5 7 -5 7 -15 -9z"></path><path id="pozfMDj7j" d="M2320 3131 l0 -108 64 -7 64 -6 15 6 16 6 10 31 10 32 -1 73 -2 72 -21 0 -21 0 4 -69 4 -68 -11 -22 -12 -21 -29 0 -29 0 -11 19 -10 20 0 75 0 76 -20 0 -20 0 0 -109z"></path><path id="p8NwJomJo" d="M2562 3228 l-12 -12 0 -60 0 -60 -12 -33 -12 -33 17 -35 17 -35 15 0 15 0 0 25 0 24 20 11 c26 14 25 23 -2 35 l-23 10 -3 44 c-2 25 -1 54 2 67 l6 22 26 6 27 7 -9 9 c-5 5 -20 11 -34 15 l-25 6 -13 -13z"></path><path id="p4RVbBSet" d="M2679 3211 l-29 -29 0 -57 0 -57 29 -29 29 -29 37 0 37 0 29 29 29 29 0 31 0 31 -75 0 -75 0 0 19 0 20 16 15 15 16 23 0 23 0 26 -20 c31 -25 37 -25 37 -1 l0 20 -26 20 -27 21 -34 0 -35 0 -29 -29z m116 -121 l7 -11 -12 -14 -12 -15 -32 0 -32 0 -12 12 c-7 7 -12 15 -12 19 l0 8 38 4 c20 2 42 4 49 5 6 1 15 -3 18 -8z"></path><path id="pwvkzxlCe" d="M2888 3233 c-2 -5 -2 -54 0 -109 l3 -102 52 -5 52 -5 9 8 8 8 -6 11 -7 11 -29 0 -29 0 -7 12 -7 11 -3 76 c-2 42 -4 79 -4 84 0 4 -6 7 -14 7 -8 0 -16 -3 -18 -7z"></path><path id="p15G73BBYd" d="M3037 3234 l-7 -7 0 -84 0 -84 10 -18 9 -19 57 -7 56 -7 19 18 19 17 0 99 0 98 -15 0 -15 0 0 -76 0 -75 -10 -20 -11 -19 -29 0 -29 0 -10 19 -10 18 -3 73 -3 73 -11 4 c-5 2 -13 0 -17 -3z"></path><path id="pOxinGM0J" d="M3268 3225 l-28 -16 0 -27 0 -28 13 -18 14 -19 51 -5 52 -5 10 -12 10 -12 -6 -17 -6 -16 -28 0 -28 0 -37 16 c-41 17 -49 15 -39 -10 l6 -17 29 -14 28 -15 39 0 38 0 19 14 19 13 1 84 1 84 9 19 8 19 -24 -7 c-27 -9 -38 -9 -89 -1 l-35 5 -27 -15z m102 -45 l20 -20 0 -16 0 -16 -22 7 c-13 4 -36 9 -51 12 l-29 6 -5 14 -6 15 14 9 c8 5 24 9 37 9 l22 0 20 -20z"></path><path id="p17u1OUzbI" d="M3502 3228 l-12 -12 0 -63 0 -64 -14 -27 -13 -27 19 -42 19 -43 9 0 10 0 0 19 0 18 21 27 21 27 -21 20 -21 20 0 48 0 48 25 23 24 23 -5 8 -5 9 -23 0 -22 0 -12 -12z"></path><path id="pzSOonHTs" d="M3600 3138 l0 -103 9 -14 9 -14 11 21 11 21 0 95 0 96 -20 0 -20 0 0 -102z"></path><path id="pJpQLhBSw" d="M3721 3215 l-30 -26 -6 -43 -7 -42 15 -36 15 -35 31 -12 31 -13 34 6 35 7 21 26 20 26 0 43 0 43 -12 26 -12 26 -27 15 -28 14 -25 0 -24 0 -31 -25z m101 -32 l18 -16 0 -43 0 -43 -16 -15 -15 -16 -29 0 -29 0 -15 22 -16 22 0 31 0 31 16 22 15 22 26 0 26 0 19 -17z"></path><path id="p2qrsYxra" d="M3924 3227 c-3 -8 -3 -56 -2 -108 l3 -94 30 -3 c17 -1 46 -5 67 -8 l36 -6 21 21 21 21 0 90 0 90 -20 0 -20 0 0 -79 0 -79 -14 -12 -15 -12 -23 4 -22 3 -13 25 -13 25 0 68 0 67 -15 0 -16 0 -5 -13z"></path><path id="pczbZmIAY" d="M4151 3214 c-24 -30 -24 -34 -11 -68 l9 -25 38 -10 c21 -6 47 -9 58 -8 l20 2 3 -24 4 -23 -10 -10 -9 -9 -52 21 c-62 24 -61 24 -61 6 l0 -15 26 -20 27 -21 43 0 44 0 20 20 20 20 2 80 c0 44 1 85 2 91 l1 12 -77 4 -76 3 -21 -26z m119 -43 l0 -30 -9 -5 -9 -6 -28 15 c-16 8 -35 15 -41 15 l-13 0 0 14 0 15 18 4 c9 3 32 5 50 6 l32 1 0 -29z"></path><path id="poIrAr53B" d="M4379 3238 c-4 -11 -7 -266 -3 -280 l5 -18 15 0 15 0 -3 147 -3 146 -12 5 c-7 2 -14 2 -14 0z"></path><path id="pUzoAu0tE" d="M4608 3210 l-28 -28 0 -52 0 -51 15 -29 15 -29 19 -6 20 -6 35 6 35 7 3 -33 3 -34 18 -3 18 -4 -3 143 -3 142 -59 3 -59 2 -29 -28z m98 -24 l19 -14 0 -47 0 -47 -19 -14 -20 -14 -22 0 -23 0 -15 22 -16 22 0 31 0 31 16 22 15 22 23 0 22 0 20 -14z"></path><path id="pPIuZRTpv" d="M4864 3230 l-22 -9 -16 -23 -16 -22 0 -54 0 -54 29 -29 29 -29 37 0 37 0 29 29 29 29 0 31 0 31 -75 0 -75 0 0 16 c0 8 5 24 10 35 l11 19 22 0 22 0 37 -19 c40 -22 48 -20 41 10 l-6 20 -28 14 -28 15 -23 -1 c-13 0 -33 -4 -44 -9z m92 -142 l7 -8 -13 -15 -12 -15 -33 0 -33 0 -12 15 -12 14 5 8 5 8 45 0 45 0 8 -7z"></path><path id="pByIjRtvl" d="M5160 3090 l0 -150 75 0 76 0 28 15 29 14 6 16 c3 9 6 32 6 50 l0 33 -19 23 -19 23 -71 4 -71 4 -1 12 c0 6 0 32 1 59 l1 47 -20 0 -21 0 0 -150z m172 -21 l20 -11 -7 -26 c-4 -15 -11 -33 -17 -39 l-10 -13 -59 0 -59 0 0 50 0 50 56 0 55 0 21 -11z"></path><path id="pYH8zPVo6" d="M5441 3221 c-22 -22 -24 -32 -15 -68 l6 -21 26 -10 c15 -6 44 -13 65 -17 l37 -6 0 -23 0 -24 -16 -6 -17 -6 -43 21 -43 21 -11 -7 -10 -6 10 -19 10 -18 31 -11 c18 -6 46 -11 64 -11 l32 0 19 21 19 21 6 87 c3 47 5 87 5 87 -1 1 -36 5 -78 9 l-76 7 -21 -21z m113 -37 c3 -9 6 -22 6 -30 l0 -14 -19 0 c-10 0 -32 5 -50 11 l-31 11 0 13 0 13 13 5 c6 3 26 6 43 6 l32 1 6 -16z"></path><path id="p73zwuslN" d="M5761 3221 l-21 -21 0 -29 0 -29 14 -12 15 -11 47 -7 47 -7 11 -17 11 -18 -17 -16 -16 -16 -47 21 c-26 12 -51 21 -56 21 l-9 0 0 -15 0 -15 33 -20 32 -20 36 0 37 0 22 18 22 18 3 92 2 92 -21 0 c-12 0 -44 3 -72 6 l-52 6 -21 -21z m109 -50 l0 -30 -7 -4 c-5 -3 -27 4 -50 14 l-43 18 0 10 0 10 23 4 c12 2 34 5 50 6 l27 1 0 -29z"></path><path id="pzmUKbsEN" d="M6102 3225 l-32 -14 -6 -16 -6 -16 5 -5 5 -5 49 17 50 17 17 -6 17 -7 -3 -16 -3 -15 -55 -19 -54 -18 -13 -18 -13 -18 6 -20 c4 -12 13 -29 22 -38 l15 -18 39 0 39 0 24 16 25 16 0 15 0 15 -22 -6 c-13 -3 -40 -9 -62 -12 l-38 -7 4 19 3 19 60 20 60 20 3 37 3 38 -33 20 -33 20 -20 0 c-11 -1 -35 -7 -53 -15z"></path><path id="p1EU7hpT1C" d="M6307 3218 l-25 -23 -9 -40 -9 -40 8 -32 8 -32 26 -20 27 -21 31 0 32 0 20 15 21 14 13 30 12 31 -6 15 -5 15 -71 0 -70 0 0 16 c0 8 5 24 10 35 l11 19 20 0 c12 0 36 -7 55 -16 l35 -17 5 6 6 5 -6 20 -6 19 -26 11 -25 12 -29 0 -29 0 -24 -22z m99 -128 l14 0 0 -10 0 -9 -29 -16 -30 -15 -16 6 c-8 4 -20 14 -25 24 l-10 18 13 6 12 5 29 -4 c16 -3 35 -5 42 -5z"></path><path id="pWxb5M9Hx" d="M6514 3214 l-25 -24 6 -23 7 -22 20 -17 20 -18 22 -1 c11 -1 29 -1 38 0 l17 2 11 -22 12 -21 -14 -15 -15 -14 -51 20 -51 20 -7 -10 -6 -11 20 -20 20 -21 49 -4 48 -5 22 18 22 19 3 94 3 93 -73 4 -74 3 -24 -25z m116 -43 l0 -30 -10 -6 -9 -6 -18 11 c-10 5 -31 15 -48 21 l-30 11 30 14 c17 7 42 13 58 14 l27 0 0 -29z"></path><path id="p1Hv2jNbc6" d="M6770 3227 l-25 -13 0 -97 0 -97 10 0 10 0 5 77 5 78 8 13 8 12 23 0 22 0 18 -13 19 -14 5 -76 5 -77 13 0 14 0 0 110 0 110 -8 0 c-4 0 -13 -5 -20 -12 l-11 -11 -26 11 c-33 15 -44 15 -75 -1z"></path><path id="pYO6lLt1Y" d="M5659 3226 c-2 -2 -3 -68 -1 -146 l3 -141 17 3 17 3 0 143 1 142 -16 0 c-9 0 -19 -2 -21 -4z"></path><path id="pgDO3Asau" d="M5978 3133 c2 -54 5 -104 8 -112 l5 -14 11 11 12 12 0 100 1 100 -20 0 -20 0 3 -97z"></path><path id="p8EdFCCLx" d="M4685 2640 c-557 -31 -1033 -133 -1371 -294 l-111 -53 -94 -63 -94 -63 -76 -76 -75 -76 -59 -85 -60 -85 -77 -152 -78 -153 0 -16 0 -17 -7 6 -6 7 -3 98 -3 97 -20 80 -21 80 -41 81 -40 82 -54 65 -54 65 -63 51 -63 51 -80 40 -80 39 -60 16 -60 17 -89 5 -89 6 6 -24 c3 -13 11 -59 18 -101 l13 -78 35 -5 c20 -4 65 -13 101 -21 l65 -15 56 -30 c30 -17 78 -48 105 -71 l49 -40 39 -52 c51 -68 83 -133 103 -209 l16 -62 -1 -85 0 -85 -12 -50 -11 -50 -36 -74 -36 -73 -50 -55 -50 -55 -56 -37 c-31 -20 -68 -42 -83 -49 l-28 -12 0 -12 c0 -30 30 -182 38 -190 l8 -8 91 46 92 45 68 58 68 57 56 78 57 79 47 111 c27 61 83 183 126 271 l78 160 59 90 c73 112 125 173 216 253 l71 62 81 50 c342 210 799 324 1454 361 l205 11 270 -6 270 -7 185 -15 c633 -50 1087 -146 1568 -331 l143 -54 17 3 17 3 -135 62 c-468 215 -947 336 -1540 389 l-165 14 -305 4 -305 4 -150 -8z"></path><path id="p8jkB3BAX" d="M1421 2299 c-41 -22 -101 -61 -134 -87 l-60 -47 -54 -69 -54 -69 -39 -81 -39 -81 -18 -65 -17 -65 0 -135 0 -135 17 -65 18 -65 39 -80 39 -80 55 -68 54 -69 69 -54 68 -54 80 -40 80 -39 60 -15 c33 -8 88 -18 123 -22 l62 -7 -1 14 c0 8 -8 57 -17 109 l-18 95 -52 7 -52 8 -61 24 -60 25 -65 46 -65 47 -41 51 -41 52 -28 60 c-16 33 -35 87 -44 120 l-15 59 0 76 0 75 15 64 15 64 35 66 35 66 45 52 45 52 60 39 c33 22 65 42 71 44 l12 4 -17 99 c-10 55 -20 103 -24 107 l-7 7 -74 -40z"></path><path id="pB6gV6rAq" d="M3200 1580 l0 -510 109 0 109 0 7 18 6 17 -2 385 -2 385 249 5 249 5 -1 100 -2 100 -361 3 -361 2 0 -510z"></path><path id="pa1lS3S94" d="M4068 1578 l2 -503 110 -3 110 -3 0 506 0 505 -112 0 -113 0 3 -502z"></path><path id="pw3Esiw5K" d="M4460 1574 l0 -505 263 3 262 4 57 22 57 23 49 44 49 44 28 63 29 63 0 80 0 80 -18 52 -17 52 -45 50 -45 50 -62 30 -62 30 -70 11 -70 11 -80 -1 c-44 -1 -86 -1 -92 -1 l-13 1 0 150 0 150 -110 0 -110 0 0 -506z m490 -19 l35 -20 23 -47 24 -47 -7 -42 -7 -41 -29 -33 -29 -33 -44 -11 -45 -11 -95 0 -96 0 0 156 0 156 118 -3 117 -4 35 -20z"></path></g></g></svg>
